<svg width="889" height="257" viewBox="0 0 889 257" fill="none" xmlns="http://www.w3.org/2000/svg">
<rect x="540" y="93" width="130" height="101" rx="50.5" stroke="black" stroke-width="24"/>
<path d="M44.8693 139.148V206H12.7983V90.3636H43.3636V110.766H44.7188C47.2784 104.04 51.5696 98.7202 57.5923 94.8054C63.6151 90.8404 70.9176 88.858 79.5 88.858C87.5303 88.858 94.5317 90.6146 100.504 94.1278C106.477 97.6411 111.119 102.66 114.432 109.185C117.744 115.659 119.401 123.388 119.401 132.372V206H87.3296V138.094C87.3797 131.017 85.5729 125.496 81.9091 121.531C78.2453 117.516 73.2012 115.509 66.777 115.509C62.4607 115.509 58.6463 116.437 55.3338 118.294C52.0715 120.151 49.5118 122.861 47.6548 126.425C45.848 129.938 44.9195 134.179 44.8693 139.148ZM197.376 208.259C185.481 208.259 175.243 205.849 166.66 201.031C158.128 196.163 151.553 189.287 146.936 180.403C142.318 171.47 140.01 160.905 140.01 148.709C140.01 136.814 142.318 126.375 146.936 117.391C151.553 108.407 158.053 101.405 166.434 96.3864C174.866 91.3674 184.753 88.858 196.096 88.858C203.725 88.858 210.827 90.0876 217.402 92.5469C224.027 94.956 229.798 98.5947 234.717 103.463C239.686 108.331 243.55 114.455 246.311 121.832C249.071 129.16 250.451 137.742 250.451 147.58V156.388H152.808V136.513H220.262C220.262 131.895 219.259 127.805 217.251 124.241C215.243 120.678 212.458 117.893 208.895 115.885C205.381 113.827 201.291 112.798 196.623 112.798C191.755 112.798 187.439 113.928 183.674 116.186C179.96 118.394 177.049 121.381 174.941 125.145C172.833 128.859 171.754 133 171.704 137.567V156.463C171.704 162.185 172.758 167.128 174.866 171.294C177.024 175.46 180.061 178.672 183.975 180.93C187.89 183.189 192.533 184.318 197.903 184.318C201.467 184.318 204.729 183.816 207.69 182.812C210.651 181.809 213.186 180.303 215.294 178.295C217.402 176.288 219.008 173.829 220.112 170.918L249.774 172.875C248.268 180.002 245.181 186.225 240.514 191.545C235.896 196.815 229.924 200.931 222.596 203.892C215.319 206.803 206.912 208.259 197.376 208.259ZM271.38 249.364V90.3636H303V109.787H304.43C305.835 106.675 307.868 103.513 310.528 100.301C313.238 97.0388 316.752 94.3286 321.068 92.1705C325.434 89.9621 330.855 88.858 337.329 88.858C345.761 88.858 353.54 91.0663 360.667 95.483C367.794 99.8494 373.491 106.449 377.757 115.283C382.023 124.066 384.156 135.082 384.156 148.332C384.156 161.231 382.073 172.122 377.907 181.006C373.792 189.839 368.171 196.539 361.044 201.107C353.967 205.624 346.037 207.882 337.254 207.882C331.03 207.882 325.735 206.853 321.369 204.795C317.053 202.738 313.514 200.153 310.754 197.041C307.993 193.879 305.886 190.692 304.43 187.48H303.451V249.364H271.38ZM302.774 148.182C302.774 155.058 303.727 161.055 305.635 166.175C307.542 171.294 310.302 175.284 313.916 178.145C317.529 180.955 321.921 182.361 327.091 182.361C332.31 182.361 336.727 180.93 340.341 178.07C343.954 175.159 346.69 171.143 348.547 166.024C350.454 160.855 351.407 154.907 351.407 148.182C351.407 141.507 350.479 135.634 348.622 130.565C346.765 125.496 344.029 121.531 340.416 118.67C336.802 115.81 332.36 114.379 327.091 114.379C321.871 114.379 317.454 115.759 313.841 118.52C310.277 121.28 307.542 125.195 305.635 130.264C303.727 135.333 302.774 141.306 302.774 148.182ZM448.147 207.882C439.364 207.882 431.409 205.624 424.282 201.107C417.206 196.539 411.584 189.839 407.419 181.006C403.303 172.122 401.245 161.231 401.245 148.332C401.245 135.082 403.378 124.066 407.645 115.283C411.911 106.449 417.582 99.8494 424.659 95.483C431.786 91.0663 439.59 88.858 448.072 88.858C454.547 88.858 459.942 89.9621 464.258 92.1705C468.625 94.3286 472.138 97.0388 474.798 100.301C477.508 103.513 479.566 106.675 480.971 109.787H481.95V51.8182H513.946V206H482.326V187.48H480.971C479.466 190.692 477.333 193.879 474.572 197.041C471.862 200.153 468.324 202.738 463.957 204.795C459.641 206.853 454.371 207.882 448.147 207.882ZM458.311 182.361C463.48 182.361 467.847 180.955 471.41 178.145C475.024 175.284 477.784 171.294 479.691 166.175C481.649 161.055 482.627 155.058 482.627 148.182C482.627 141.306 481.674 135.333 479.767 130.264C477.859 125.195 475.099 121.28 471.485 118.52C467.872 115.759 463.48 114.379 458.311 114.379C453.041 114.379 448.599 115.81 444.985 118.67C441.372 121.531 438.636 125.496 436.779 130.565C434.922 135.634 433.994 141.507 433.994 148.182C433.994 154.907 434.922 160.855 436.779 166.024C438.687 171.143 441.422 175.159 444.985 178.07C448.599 180.93 453.041 182.361 458.311 182.361Z" fill="#114B91"/>
<path d="M694.798 206V90.3636H725.891V110.54H727.095C729.203 103.363 732.741 97.9422 737.71 94.2784C742.679 90.5644 748.401 88.7074 754.875 88.7074C756.481 88.7074 758.213 88.8078 760.07 89.0085C761.927 89.2093 763.558 89.4853 764.963 89.8366V118.294C763.457 117.842 761.375 117.441 758.714 117.089C756.054 116.738 753.62 116.562 751.412 116.562C746.694 116.562 742.478 117.591 738.764 119.649C735.1 121.657 732.189 124.467 730.031 128.081C727.923 131.695 726.869 135.86 726.869 140.578V206H694.798ZM811.206 208.183C803.828 208.183 797.254 206.903 791.482 204.344C785.71 201.734 781.143 197.894 777.78 192.825C774.468 187.706 772.811 181.332 772.811 173.703C772.811 167.279 773.991 161.884 776.35 157.517C778.709 153.151 781.921 149.637 785.986 146.977C790.051 144.317 794.669 142.31 799.838 140.955C805.058 139.599 810.529 138.646 816.25 138.094C822.976 137.391 828.396 136.739 832.512 136.136C836.627 135.484 839.614 134.53 841.471 133.276C843.328 132.021 844.256 130.164 844.256 127.705V127.253C844.256 122.485 842.75 118.796 839.739 116.186C836.778 113.576 832.562 112.271 827.091 112.271C821.319 112.271 816.727 113.551 813.314 116.111C809.901 118.62 807.643 121.782 806.539 125.597L776.877 123.188C778.382 116.161 781.344 110.088 785.76 104.969C790.177 99.7992 795.873 95.8343 802.85 93.0739C809.876 90.2633 818.007 88.858 827.242 88.858C833.666 88.858 839.814 89.6108 845.686 91.1165C851.609 92.6222 856.854 94.956 861.421 98.1179C866.038 101.28 869.677 105.345 872.337 110.314C874.997 115.232 876.327 121.13 876.327 128.006V206H845.912V189.964H845.009C843.152 193.578 840.667 196.765 837.556 199.526C834.444 202.236 830.705 204.369 826.338 205.925C821.972 207.43 816.928 208.183 811.206 208.183ZM820.391 186.05C825.109 186.05 829.275 185.121 832.888 183.264C836.502 181.357 839.337 178.797 841.395 175.585C843.453 172.373 844.482 168.734 844.482 164.669V152.398C843.478 153.05 842.098 153.652 840.341 154.205C838.635 154.706 836.703 155.183 834.544 155.635C832.386 156.036 830.228 156.413 828.07 156.764C825.912 157.065 823.954 157.341 822.198 157.592C818.434 158.144 815.146 159.023 812.336 160.227C809.525 161.432 807.342 163.063 805.786 165.121C804.23 167.128 803.452 169.638 803.452 172.649C803.452 177.016 805.033 180.353 808.195 182.662C811.407 184.92 815.472 186.05 820.391 186.05Z" fill="black"/>
</svg>
